<svg role="img" viewBox="0 0 24 24" xmlns="http://www.w3.org/2000/svg"><title>Amazon Web Services</title><path fill="#FF9900" d="M6.5 10.2c0 .7.6 1.2 1.4 1.2.5 0 1-.2 1.4-.5l.3.4c-.5.4-1.1.7-1.8.7-1.2 0-2.1-.8-2.1-2 0-1.2 1-2 2.3-2 .7 0 1.3.2 1.7.5l-.3.5c-.4-.3-.9-.5-1.4-.5-.7 0-1.2.4-1.2 1.1zm8.2-2.1c1.1 0 1.8.7 1.8 1.8v2.8h-.8v-.7c-.4.5-1 .8-1.7.8-1 0-1.6-.6-1.6-1.4 0-.9.7-1.4 2-1.4h1.2v-.2c0-.6-.4-1-1.2-1-.6 0-1.1.2-1.5.5l-.3-.5c.5-.4 1.1-.7 2-.7zm-1.2 3.5v-.2h-1.1c-.9 0-1.3.3-1.3.8 0 .5.4.8 1 .8.7 0 1.4-.5 1.4-1.4zM4 18.5c3.5 2.2 8.1 3.4 12.8 3.4 2.5 0 5-.4 7.4-1.2.4-.1.7.2.3.5-2 1.8-4.7 2.9-7.7 2.9-3.7 0-7-1.5-9.5-3.9-.3-.3 0-.8.4-.7h.3z"/><path fill="#FF9900" d="M3.3 16.8c4.3 3.3 10.7 5.4 16.1 5.4 3 0 5.9-.6 8.7-1.8.4-.2.8.3.4.6-2.3 2-5.4 3.2-8.7 3.2-4.1 0-7.7-1.7-10.5-4.4-.4-.3 0-.9.5-.7l-.5.7z"/></svg>
